<mxfile host="app.diagrams.net" modified="2023-09-28T19:21:19.530Z" agent="Mozilla/5.0 (Macintosh; Intel Mac OS X 10_15_7) AppleWebKit/537.36 (KHTML, like Gecko) Chrome/116.0.0.0 Safari/537.36" etag="htmyRh4r60uR6To69XG5" version="21.7.4" type="device">
  <diagram name="Page-1" id="aMlMfU63WIuZVasiP-Af">
    <mxGraphModel dx="909" dy="532" grid="1" gridSize="10" guides="1" tooltips="1" connect="1" arrows="1" fold="1" page="1" pageScale="1" pageWidth="827" pageHeight="1169" math="0" shadow="0">
      <root>
        <mxCell id="0" />
        <mxCell id="1" parent="0" />
        <mxCell id="4b1lWwYbqHS-aApubopM-47" value="" style="rounded=0;whiteSpace=wrap;html=1;" vertex="1" parent="1">
          <mxGeometry x="670" y="167.5" width="266" height="435" as="geometry" />
        </mxCell>
        <mxCell id="4b1lWwYbqHS-aApubopM-46" value="" style="rounded=0;whiteSpace=wrap;html=1;" vertex="1" parent="1">
          <mxGeometry x="286" y="167.5" width="266" height="435" as="geometry" />
        </mxCell>
        <mxCell id="4b1lWwYbqHS-aApubopM-2" value="" style="endArrow=none;html=1;rounded=0;" edge="1" parent="1">
          <mxGeometry width="50" height="50" relative="1" as="geometry">
            <mxPoint x="319" y="320" as="sourcePoint" />
            <mxPoint x="519" y="320" as="targetPoint" />
          </mxGeometry>
        </mxCell>
        <mxCell id="4b1lWwYbqHS-aApubopM-3" value="1400" style="text;html=1;strokeColor=none;fillColor=none;align=center;verticalAlign=middle;whiteSpace=wrap;rounded=0;fontSize=8;" vertex="1" parent="1">
          <mxGeometry x="289" y="320" width="60" height="30" as="geometry" />
        </mxCell>
        <mxCell id="4b1lWwYbqHS-aApubopM-4" value="1800" style="text;html=1;strokeColor=none;fillColor=none;align=center;verticalAlign=middle;whiteSpace=wrap;rounded=0;fontSize=8;" vertex="1" parent="1">
          <mxGeometry x="489" y="320" width="60" height="30" as="geometry" />
        </mxCell>
        <mxCell id="4b1lWwYbqHS-aApubopM-5" value="" style="endArrow=none;html=1;rounded=0;strokeWidth=2;" edge="1" parent="1">
          <mxGeometry width="50" height="50" relative="1" as="geometry">
            <mxPoint x="359" y="330" as="sourcePoint" />
            <mxPoint x="359" y="310" as="targetPoint" />
          </mxGeometry>
        </mxCell>
        <mxCell id="4b1lWwYbqHS-aApubopM-6" value="" style="endArrow=none;html=1;rounded=0;strokeWidth=2;" edge="1" parent="1">
          <mxGeometry width="50" height="50" relative="1" as="geometry">
            <mxPoint x="479" y="330" as="sourcePoint" />
            <mxPoint x="479" y="310" as="targetPoint" />
          </mxGeometry>
        </mxCell>
        <mxCell id="4b1lWwYbqHS-aApubopM-7" value="" style="endArrow=none;html=1;rounded=0;strokeWidth=4;" edge="1" parent="1">
          <mxGeometry width="50" height="50" relative="1" as="geometry">
            <mxPoint x="439" y="334" as="sourcePoint" />
            <mxPoint x="439" y="304" as="targetPoint" />
          </mxGeometry>
        </mxCell>
        <mxCell id="4b1lWwYbqHS-aApubopM-8" value="tmevans" style="text;html=1;strokeColor=none;fillColor=none;align=center;verticalAlign=middle;whiteSpace=wrap;rounded=0;fontStyle=1;fontSize=14;" vertex="1" parent="1">
          <mxGeometry x="384" y="190" width="60" height="30" as="geometry" />
        </mxCell>
        <mxCell id="4b1lWwYbqHS-aApubopM-9" value="Bullet" style="text;html=1;strokeColor=none;fillColor=none;align=center;verticalAlign=middle;whiteSpace=wrap;rounded=0;" vertex="1" parent="1">
          <mxGeometry x="384" y="220" width="60" height="30" as="geometry" />
        </mxCell>
        <mxCell id="4b1lWwYbqHS-aApubopM-11" value="1700" style="text;html=1;strokeColor=none;fillColor=none;align=center;verticalAlign=middle;whiteSpace=wrap;rounded=0;fontSize=8;" vertex="1" parent="1">
          <mxGeometry x="409" y="330" width="60" height="30" as="geometry" />
        </mxCell>
        <mxCell id="4b1lWwYbqHS-aApubopM-13" value="Win streak" style="text;html=1;strokeColor=none;fillColor=none;align=center;verticalAlign=middle;whiteSpace=wrap;rounded=0;" vertex="1" parent="1">
          <mxGeometry x="349" y="260" width="60" height="30" as="geometry" />
        </mxCell>
        <mxCell id="4b1lWwYbqHS-aApubopM-14" value="-3" style="text;html=1;strokeColor=#b85450;fillColor=#f8cecc;align=center;verticalAlign=middle;whiteSpace=wrap;rounded=0;" vertex="1" parent="1">
          <mxGeometry x="419" y="260" width="60" height="30" as="geometry" />
        </mxCell>
        <mxCell id="4b1lWwYbqHS-aApubopM-20" value="" style="ellipse;whiteSpace=wrap;html=1;aspect=fixed;" vertex="1" parent="1">
          <mxGeometry x="309" y="360" width="210" height="210" as="geometry" />
        </mxCell>
        <mxCell id="4b1lWwYbqHS-aApubopM-21" value="" style="endArrow=none;html=1;rounded=0;exitX=0.082;exitY=0.205;exitDx=0;exitDy=0;exitPerimeter=0;" edge="1" parent="1" source="4b1lWwYbqHS-aApubopM-20">
          <mxGeometry width="50" height="50" relative="1" as="geometry">
            <mxPoint x="370" y="510" as="sourcePoint" />
            <mxPoint x="420" y="460" as="targetPoint" />
          </mxGeometry>
        </mxCell>
        <mxCell id="4b1lWwYbqHS-aApubopM-22" value="" style="endArrow=none;html=1;rounded=0;" edge="1" parent="1" source="4b1lWwYbqHS-aApubopM-20">
          <mxGeometry width="50" height="50" relative="1" as="geometry">
            <mxPoint x="336" y="413" as="sourcePoint" />
            <mxPoint x="420" y="460" as="targetPoint" />
          </mxGeometry>
        </mxCell>
        <mxCell id="4b1lWwYbqHS-aApubopM-27" value="" style="group;rotation=-180;" vertex="1" connectable="0" parent="1">
          <mxGeometry x="340" y="450" width="169" height="70" as="geometry" />
        </mxCell>
        <mxCell id="4b1lWwYbqHS-aApubopM-25" value="" style="endArrow=none;html=1;rounded=0;exitX=0.082;exitY=0.205;exitDx=0;exitDy=0;exitPerimeter=0;" edge="1" parent="4b1lWwYbqHS-aApubopM-27">
          <mxGeometry width="50" height="50" relative="1" as="geometry">
            <mxPoint x="75" y="10.327868852459016" as="sourcePoint" />
            <mxPoint x="169" y="75.73770491803279" as="targetPoint" />
          </mxGeometry>
        </mxCell>
        <mxCell id="4b1lWwYbqHS-aApubopM-26" value="" style="endArrow=none;html=1;rounded=0;" edge="1" parent="4b1lWwYbqHS-aApubopM-27">
          <mxGeometry width="50" height="50" relative="1" as="geometry">
            <mxPoint x="75" y="10.327868852459016" as="sourcePoint" />
            <mxPoint y="80.327868852459" as="targetPoint" />
          </mxGeometry>
        </mxCell>
        <mxCell id="4b1lWwYbqHS-aApubopM-33" value="Loss" style="text;html=1;strokeColor=none;fillColor=none;align=center;verticalAlign=middle;whiteSpace=wrap;rounded=0;" vertex="1" parent="4b1lWwYbqHS-aApubopM-27">
          <mxGeometry x="-20" y="20" width="60" height="30" as="geometry" />
        </mxCell>
        <mxCell id="4b1lWwYbqHS-aApubopM-60" value="Disconnect" style="text;html=1;strokeColor=none;fillColor=none;align=center;verticalAlign=middle;whiteSpace=wrap;rounded=0;" vertex="1" parent="4b1lWwYbqHS-aApubopM-27">
          <mxGeometry x="-30" width="60" height="30" as="geometry" />
        </mxCell>
        <mxCell id="4b1lWwYbqHS-aApubopM-28" value="Mate" style="text;html=1;strokeColor=none;fillColor=none;align=center;verticalAlign=middle;whiteSpace=wrap;rounded=0;" vertex="1" parent="1">
          <mxGeometry x="384" y="380" width="60" height="30" as="geometry" />
        </mxCell>
        <mxCell id="4b1lWwYbqHS-aApubopM-29" value="Stalemate" style="text;html=1;strokeColor=none;fillColor=none;align=center;verticalAlign=middle;whiteSpace=wrap;rounded=0;" vertex="1" parent="1">
          <mxGeometry x="449" y="450" width="60" height="30" as="geometry" />
        </mxCell>
        <mxCell id="4b1lWwYbqHS-aApubopM-30" value="Time" style="text;html=1;strokeColor=none;fillColor=none;align=center;verticalAlign=middle;whiteSpace=wrap;rounded=0;" vertex="1" parent="1">
          <mxGeometry x="389" y="500" width="60" height="30" as="geometry" />
        </mxCell>
        <mxCell id="4b1lWwYbqHS-aApubopM-31" value="Draw" style="text;html=1;strokeColor=none;fillColor=none;align=center;verticalAlign=middle;whiteSpace=wrap;rounded=0;" vertex="1" parent="1">
          <mxGeometry x="310" y="420" width="60" height="30" as="geometry" />
        </mxCell>
        <mxCell id="4b1lWwYbqHS-aApubopM-32" value="" style="endArrow=none;html=1;rounded=0;exitX=-0.008;exitY=0.422;exitDx=0;exitDy=0;exitPerimeter=0;" edge="1" parent="1" source="4b1lWwYbqHS-aApubopM-20">
          <mxGeometry width="50" height="50" relative="1" as="geometry">
            <mxPoint x="390" y="360" as="sourcePoint" />
            <mxPoint x="414" y="460" as="targetPoint" />
          </mxGeometry>
        </mxCell>
        <mxCell id="4b1lWwYbqHS-aApubopM-34" value="tmevans" style="text;html=1;strokeColor=none;fillColor=none;align=center;verticalAlign=middle;whiteSpace=wrap;rounded=0;fontStyle=1;fontSize=14;" vertex="1" parent="1">
          <mxGeometry x="700" y="190" width="60" height="30" as="geometry" />
        </mxCell>
        <mxCell id="4b1lWwYbqHS-aApubopM-35" value="Sicilian Defence (68% likelihood)" style="text;html=1;strokeColor=none;fillColor=none;align=left;verticalAlign=middle;whiteSpace=wrap;rounded=0;" vertex="1" parent="1">
          <mxGeometry x="700" y="230" width="90" height="30" as="geometry" />
        </mxCell>
        <mxCell id="4b1lWwYbqHS-aApubopM-36" value="Default view:" style="text;html=1;strokeColor=none;fillColor=none;align=center;verticalAlign=middle;whiteSpace=wrap;rounded=0;" vertex="1" parent="1">
          <mxGeometry x="389" y="120" width="60" height="30" as="geometry" />
        </mxCell>
        <mxCell id="4b1lWwYbqHS-aApubopM-37" value="Openings view:" style="text;html=1;strokeColor=none;fillColor=none;align=center;verticalAlign=middle;whiteSpace=wrap;rounded=0;" vertex="1" parent="1">
          <mxGeometry x="773" y="120" width="60" height="30" as="geometry" />
        </mxCell>
        <mxCell id="4b1lWwYbqHS-aApubopM-38" value="Open (52% likelihood)" style="whiteSpace=wrap;html=1;aspect=fixed;" vertex="1" parent="1">
          <mxGeometry x="700" y="310" width="80" height="80" as="geometry" />
        </mxCell>
        <mxCell id="4b1lWwYbqHS-aApubopM-39" value="Closed (48% likelihood)" style="whiteSpace=wrap;html=1;aspect=fixed;" vertex="1" parent="1">
          <mxGeometry x="800" y="310" width="80" height="80" as="geometry" />
        </mxCell>
        <mxCell id="4b1lWwYbqHS-aApubopM-41" value="" style="endArrow=classic;html=1;rounded=0;" edge="1" parent="1">
          <mxGeometry width="50" height="50" relative="1" as="geometry">
            <mxPoint x="940" y="150" as="sourcePoint" />
            <mxPoint x="830" y="250" as="targetPoint" />
          </mxGeometry>
        </mxCell>
        <mxCell id="4b1lWwYbqHS-aApubopM-42" value="Show a board with the first 3 moves of the opening" style="text;html=1;strokeColor=none;fillColor=none;align=center;verticalAlign=middle;whiteSpace=wrap;rounded=0;" vertex="1" parent="1">
          <mxGeometry x="936" y="120" width="90" height="30" as="geometry" />
        </mxCell>
        <mxCell id="4b1lWwYbqHS-aApubopM-43" value="Queen&#39;s Pawn Game (28% likelihood)" style="text;html=1;strokeColor=none;fillColor=none;align=left;verticalAlign=middle;whiteSpace=wrap;rounded=0;" vertex="1" parent="1">
          <mxGeometry x="700" y="420" width="120" height="30" as="geometry" />
        </mxCell>
        <mxCell id="4b1lWwYbqHS-aApubopM-44" value="&lt;font style=&quot;font-size: 10px;&quot;&gt;(52% likelihood)&lt;/font&gt;" style="whiteSpace=wrap;html=1;aspect=fixed;" vertex="1" parent="1">
          <mxGeometry x="700" y="500" width="80" height="80" as="geometry" />
        </mxCell>
        <mxCell id="4b1lWwYbqHS-aApubopM-48" value="Accuracy" style="text;html=1;strokeColor=none;fillColor=none;align=center;verticalAlign=middle;whiteSpace=wrap;rounded=0;" vertex="1" parent="1">
          <mxGeometry x="695" y="270" width="60" height="30" as="geometry" />
        </mxCell>
        <mxCell id="4b1lWwYbqHS-aApubopM-49" value="68%" style="text;html=1;strokeColor=#b85450;fillColor=#f8cecc;align=center;verticalAlign=middle;whiteSpace=wrap;rounded=0;" vertex="1" parent="1">
          <mxGeometry x="755" y="270" width="35" height="30" as="geometry" />
        </mxCell>
        <mxCell id="4b1lWwYbqHS-aApubopM-50" value="Win rate" style="text;html=1;strokeColor=none;fillColor=none;align=center;verticalAlign=middle;whiteSpace=wrap;rounded=0;" vertex="1" parent="1">
          <mxGeometry x="800" y="270" width="60" height="30" as="geometry" />
        </mxCell>
        <mxCell id="4b1lWwYbqHS-aApubopM-51" value="75%" style="text;html=1;strokeColor=#b85450;fillColor=#f8cecc;align=center;verticalAlign=middle;whiteSpace=wrap;rounded=0;" vertex="1" parent="1">
          <mxGeometry x="863" y="270" width="40" height="30" as="geometry" />
        </mxCell>
        <mxCell id="4b1lWwYbqHS-aApubopM-52" value="Accuracy" style="text;html=1;strokeColor=none;fillColor=none;align=center;verticalAlign=middle;whiteSpace=wrap;rounded=0;" vertex="1" parent="1">
          <mxGeometry x="699" y="460" width="60" height="30" as="geometry" />
        </mxCell>
        <mxCell id="4b1lWwYbqHS-aApubopM-53" value="68%" style="text;html=1;strokeColor=#b85450;fillColor=#f8cecc;align=center;verticalAlign=middle;whiteSpace=wrap;rounded=0;" vertex="1" parent="1">
          <mxGeometry x="759" y="460" width="35" height="30" as="geometry" />
        </mxCell>
        <mxCell id="4b1lWwYbqHS-aApubopM-54" value="Win rate" style="text;html=1;strokeColor=none;fillColor=none;align=center;verticalAlign=middle;whiteSpace=wrap;rounded=0;" vertex="1" parent="1">
          <mxGeometry x="804" y="460" width="60" height="30" as="geometry" />
        </mxCell>
        <mxCell id="4b1lWwYbqHS-aApubopM-55" value="75%" style="text;html=1;strokeColor=#b85450;fillColor=#f8cecc;align=center;verticalAlign=middle;whiteSpace=wrap;rounded=0;" vertex="1" parent="1">
          <mxGeometry x="867" y="460" width="40" height="30" as="geometry" />
        </mxCell>
        <mxCell id="4b1lWwYbqHS-aApubopM-56" value="" style="endArrow=none;html=1;rounded=0;exitX=-0.003;exitY=0.61;exitDx=0;exitDy=0;exitPerimeter=0;" edge="1" parent="1" source="4b1lWwYbqHS-aApubopM-20">
          <mxGeometry width="50" height="50" relative="1" as="geometry">
            <mxPoint x="317" y="459" as="sourcePoint" />
            <mxPoint x="420" y="459" as="targetPoint" />
          </mxGeometry>
        </mxCell>
        <mxCell id="4b1lWwYbqHS-aApubopM-57" value="" style="group;rotation=-180;" vertex="1" connectable="0" parent="1">
          <mxGeometry x="350" y="460" width="169" height="70" as="geometry" />
        </mxCell>
        <mxCell id="4b1lWwYbqHS-aApubopM-58" value="" style="endArrow=none;html=1;rounded=0;exitX=0.082;exitY=0.205;exitDx=0;exitDy=0;exitPerimeter=0;" edge="1" parent="4b1lWwYbqHS-aApubopM-57">
          <mxGeometry width="50" height="50" relative="1" as="geometry">
            <mxPoint x="75" y="10.327868852459016" as="sourcePoint" />
            <mxPoint x="169" y="75.73770491803279" as="targetPoint" />
          </mxGeometry>
        </mxCell>
        <mxCell id="4b1lWwYbqHS-aApubopM-59" value="" style="endArrow=none;html=1;rounded=0;" edge="1" parent="4b1lWwYbqHS-aApubopM-57">
          <mxGeometry width="50" height="50" relative="1" as="geometry">
            <mxPoint x="75" y="10.327868852459016" as="sourcePoint" />
            <mxPoint y="80.327868852459" as="targetPoint" />
          </mxGeometry>
        </mxCell>
      </root>
    </mxGraphModel>
  </diagram>
</mxfile>
